<mxfile host="Electron" modified="2025-03-25T07:53:49.013Z" agent="Mozilla/5.0 (Windows NT 10.0; Win64; x64) AppleWebKit/537.36 (KHTML, like Gecko) draw.io/21.7.5 Chrome/114.0.5735.289 Electron/25.8.1 Safari/537.36" etag="Te75U1ur5M0aOzvKirwI" version="21.7.5" type="device">
  <diagram name="Página-1" id="7CahPeQRpdKRfnOCrIb_">
    <mxGraphModel dx="1674" dy="836" grid="1" gridSize="10" guides="1" tooltips="1" connect="1" arrows="1" fold="1" page="1" pageScale="1" pageWidth="1169" pageHeight="827" math="0" shadow="0">
      <root>
        <mxCell id="0" />
        <mxCell id="1" parent="0" />
        <mxCell id="IbrW2znbyaEo6Z8LKiTE-1" value="" style="rounded=0;whiteSpace=wrap;html=1;" parent="1" vertex="1">
          <mxGeometry x="240" y="120" width="520" height="440" as="geometry" />
        </mxCell>
        <mxCell id="IbrW2znbyaEo6Z8LKiTE-2" value="sistema de gestion de calificaciones de los alummnos" style="text;html=1;strokeColor=none;fillColor=none;align=center;verticalAlign=middle;whiteSpace=wrap;rounded=0;" parent="1" vertex="1">
          <mxGeometry x="240" y="120" width="210" height="30" as="geometry" />
        </mxCell>
        <mxCell id="IbrW2znbyaEo6Z8LKiTE-3" value="Profesor" style="shape=umlActor;verticalLabelPosition=bottom;verticalAlign=top;html=1;outlineConnect=0;" parent="1" vertex="1">
          <mxGeometry x="180" y="230" width="30" height="60" as="geometry" />
        </mxCell>
        <mxCell id="IbrW2znbyaEo6Z8LKiTE-4" value="consultar actas" style="ellipse;whiteSpace=wrap;html=1;" parent="1" vertex="1">
          <mxGeometry x="280" y="190" width="90" height="50" as="geometry" />
        </mxCell>
        <mxCell id="IbrW2znbyaEo6Z8LKiTE-5" value="añadir las notas de los alumnos" style="ellipse;whiteSpace=wrap;html=1;" parent="1" vertex="1">
          <mxGeometry x="475" y="160" width="90" height="50" as="geometry" />
        </mxCell>
        <mxCell id="IbrW2znbyaEo6Z8LKiTE-6" value="consultar informacion de alumnos" style="ellipse;whiteSpace=wrap;html=1;" parent="1" vertex="1">
          <mxGeometry x="280" y="280" width="90" height="50" as="geometry" />
        </mxCell>
        <mxCell id="IbrW2znbyaEo6Z8LKiTE-7" value="abrir calculadora para calcular notas" style="ellipse;whiteSpace=wrap;html=1;" parent="1" vertex="1">
          <mxGeometry x="455" y="270" width="130" height="70" as="geometry" />
        </mxCell>
        <mxCell id="IbrW2znbyaEo6Z8LKiTE-9" value="" style="endArrow=none;html=1;rounded=0;exitX=1;exitY=0.3333333333333333;exitDx=0;exitDy=0;exitPerimeter=0;entryX=0;entryY=0.5;entryDx=0;entryDy=0;" parent="1" source="IbrW2znbyaEo6Z8LKiTE-3" target="IbrW2znbyaEo6Z8LKiTE-6" edge="1">
          <mxGeometry width="50" height="50" relative="1" as="geometry">
            <mxPoint x="460" y="400" as="sourcePoint" />
            <mxPoint x="510" y="350" as="targetPoint" />
          </mxGeometry>
        </mxCell>
        <mxCell id="IbrW2znbyaEo6Z8LKiTE-10" value="" style="endArrow=none;html=1;rounded=0;exitX=1;exitY=0.3333333333333333;exitDx=0;exitDy=0;exitPerimeter=0;entryX=0;entryY=0.5;entryDx=0;entryDy=0;" parent="1" source="IbrW2znbyaEo6Z8LKiTE-3" target="IbrW2znbyaEo6Z8LKiTE-4" edge="1">
          <mxGeometry width="50" height="50" relative="1" as="geometry">
            <mxPoint x="220" y="260" as="sourcePoint" />
            <mxPoint x="290" y="315" as="targetPoint" />
          </mxGeometry>
        </mxCell>
        <mxCell id="IbrW2znbyaEo6Z8LKiTE-11" value="&amp;lt;&amp;lt;extends&amp;gt;&amp;gt;" style="endArrow=open;endSize=12;dashed=1;html=1;rounded=0;entryX=1;entryY=0.5;entryDx=0;entryDy=0;exitX=0;exitY=0.5;exitDx=0;exitDy=0;" parent="1" source="IbrW2znbyaEo6Z8LKiTE-5" target="IbrW2znbyaEo6Z8LKiTE-4" edge="1">
          <mxGeometry width="160" relative="1" as="geometry">
            <mxPoint x="410" y="370" as="sourcePoint" />
            <mxPoint x="570" y="370" as="targetPoint" />
          </mxGeometry>
        </mxCell>
        <mxCell id="IbrW2znbyaEo6Z8LKiTE-12" value="&amp;lt;&amp;lt;extends&amp;gt;&amp;gt;" style="endArrow=open;endSize=12;dashed=1;html=1;rounded=0;entryX=1;entryY=0.5;entryDx=0;entryDy=0;exitX=0;exitY=0.5;exitDx=0;exitDy=0;" parent="1" source="IbrW2znbyaEo6Z8LKiTE-7" target="IbrW2znbyaEo6Z8LKiTE-6" edge="1">
          <mxGeometry width="160" relative="1" as="geometry">
            <mxPoint x="380" y="225" as="sourcePoint" />
            <mxPoint x="470" y="225" as="targetPoint" />
          </mxGeometry>
        </mxCell>
        <mxCell id="IbrW2znbyaEo6Z8LKiTE-13" value="&amp;lt;&amp;lt;include&amp;gt;&amp;gt;" style="endArrow=open;endSize=12;dashed=1;html=1;rounded=0;exitX=0.5;exitY=1;exitDx=0;exitDy=0;entryX=0.5;entryY=0;entryDx=0;entryDy=0;" parent="1" source="IbrW2znbyaEo6Z8LKiTE-5" target="IbrW2znbyaEo6Z8LKiTE-7" edge="1">
          <mxGeometry width="160" relative="1" as="geometry">
            <mxPoint x="390" y="235" as="sourcePoint" />
            <mxPoint x="480" y="235" as="targetPoint" />
          </mxGeometry>
        </mxCell>
        <mxCell id="IbrW2znbyaEo6Z8LKiTE-14" value="Jefe de estudios" style="shape=umlActor;verticalLabelPosition=bottom;verticalAlign=top;html=1;outlineConnect=0;" parent="1" vertex="1">
          <mxGeometry x="180" y="420" width="30" height="60" as="geometry" />
        </mxCell>
        <mxCell id="IbrW2znbyaEo6Z8LKiTE-15" value="exportar e imprimir las actas" style="ellipse;whiteSpace=wrap;html=1;" parent="1" vertex="1">
          <mxGeometry x="270" y="430" width="90" height="50" as="geometry" />
        </mxCell>
        <mxCell id="IbrW2znbyaEo6Z8LKiTE-16" value="" style="endArrow=none;html=1;rounded=0;exitX=1;exitY=0.3333333333333333;exitDx=0;exitDy=0;exitPerimeter=0;entryX=0;entryY=0.5;entryDx=0;entryDy=0;" parent="1" source="IbrW2znbyaEo6Z8LKiTE-14" target="IbrW2znbyaEo6Z8LKiTE-15" edge="1">
          <mxGeometry width="50" height="50" relative="1" as="geometry">
            <mxPoint x="460" y="400" as="sourcePoint" />
            <mxPoint x="510" y="350" as="targetPoint" />
          </mxGeometry>
        </mxCell>
        <mxCell id="IbrW2znbyaEo6Z8LKiTE-17" value="Administrador" style="shape=umlActor;verticalLabelPosition=bottom;verticalAlign=top;html=1;outlineConnect=0;" parent="1" vertex="1">
          <mxGeometry x="600" y="570" width="30" height="60" as="geometry" />
        </mxCell>
        <mxCell id="IbrW2znbyaEo6Z8LKiTE-18" value="identificarse" style="ellipse;whiteSpace=wrap;html=1;" parent="1" vertex="1">
          <mxGeometry x="570" y="480" width="90" height="50" as="geometry" />
        </mxCell>
        <mxCell id="IbrW2znbyaEo6Z8LKiTE-19" value="gestionar grupos" style="ellipse;whiteSpace=wrap;html=1;" parent="1" vertex="1">
          <mxGeometry x="490" y="400" width="90" height="50" as="geometry" />
        </mxCell>
        <mxCell id="IbrW2znbyaEo6Z8LKiTE-20" value="añadir asignatura" style="ellipse;whiteSpace=wrap;html=1;" parent="1" vertex="1">
          <mxGeometry x="630" y="400" width="90" height="50" as="geometry" />
        </mxCell>
        <mxCell id="IbrW2znbyaEo6Z8LKiTE-21" value="&amp;lt;&amp;lt;extends&amp;gt;&amp;gt;" style="endArrow=open;endSize=12;dashed=1;html=1;rounded=0;entryX=0;entryY=0;entryDx=0;entryDy=0;exitX=0.5;exitY=1;exitDx=0;exitDy=0;" parent="1" source="IbrW2znbyaEo6Z8LKiTE-19" target="IbrW2znbyaEo6Z8LKiTE-18" edge="1">
          <mxGeometry width="160" relative="1" as="geometry">
            <mxPoint x="410" y="370" as="sourcePoint" />
            <mxPoint x="570" y="370" as="targetPoint" />
          </mxGeometry>
        </mxCell>
        <mxCell id="IbrW2znbyaEo6Z8LKiTE-22" value="&amp;lt;&amp;lt;extends&amp;gt;&amp;gt;" style="endArrow=open;endSize=12;dashed=1;html=1;rounded=0;entryX=1;entryY=0;entryDx=0;entryDy=0;exitX=0.5;exitY=1;exitDx=0;exitDy=0;" parent="1" source="IbrW2znbyaEo6Z8LKiTE-20" target="IbrW2znbyaEo6Z8LKiTE-18" edge="1">
          <mxGeometry x="0.0691" width="160" relative="1" as="geometry">
            <mxPoint x="800" y="500" as="sourcePoint" />
            <mxPoint x="545" y="460" as="targetPoint" />
            <mxPoint as="offset" />
          </mxGeometry>
        </mxCell>
        <mxCell id="IbrW2znbyaEo6Z8LKiTE-23" value="" style="endArrow=none;html=1;rounded=0;entryX=0.5;entryY=1;entryDx=0;entryDy=0;exitX=0.5;exitY=0;exitDx=0;exitDy=0;exitPerimeter=0;" parent="1" source="IbrW2znbyaEo6Z8LKiTE-17" target="IbrW2znbyaEo6Z8LKiTE-18" edge="1">
          <mxGeometry width="50" height="50" relative="1" as="geometry">
            <mxPoint x="460" y="400" as="sourcePoint" />
            <mxPoint x="510" y="350" as="targetPoint" />
          </mxGeometry>
        </mxCell>
      </root>
    </mxGraphModel>
  </diagram>
</mxfile>
